<svg xmlns="http://www.w3.org/2000/svg" viewBox="0 0 1200 630" role="img" aria-label="Open Graph preview">
  <defs>
    <linearGradient id="bg" x1="0%" y1="0%" x2="100%" y2="100%">
      <stop offset="0%" stop-color="#f8f5ee" />
      <stop offset="100%" stop-color="#ece5d8" />
    </linearGradient>
    <linearGradient id="panel" x1="0%" y1="0%" x2="100%" y2="100%">
      <stop offset="0%" stop-color="#183153" />
      <stop offset="100%" stop-color="#335f90" />
    </linearGradient>
  </defs>
  <rect width="1200" height="630" fill="url(#bg)" />
  <g opacity="0.08" fill="none" stroke="#183153">
    <path d="M80 70h1040" />
    <path d="M80 190h1040" />
    <path d="M80 310h1040" />
    <path d="M80 430h1040" />
    <path d="M80 550h1040" />
    <path d="M140 40v550" />
    <path d="M320 40v550" />
    <path d="M500 40v550" />
    <path d="M680 40v550" />
    <path d="M860 40v550" />
    <path d="M1040 40v550" />
  </g>
  <rect x="92" y="96" width="1016" height="438" rx="42" fill="#ffffff" opacity="0.72" />
  <rect x="130" y="132" width="132" height="132" rx="36" fill="url(#panel)" />
  <text x="168" y="216" fill="#ffffff" font-size="68" font-family="Pretendard, Arial, sans-serif" font-weight="700">J</text>
  <text x="130" y="344" fill="#183153" font-size="34" font-family="Pretendard, Arial, sans-serif" font-weight="700" letter-spacing="6">FRONTEND PORTFOLIO</text>
  <text x="130" y="424" fill="#18222f" font-size="84" font-family="Pretendard, Arial, sans-serif" font-weight="700">배지훈</text>
  <text x="130" y="486" fill="#536070" font-size="34" font-family="Pretendard, Arial, sans-serif">제품의 디테일을 설계하고 오래 유지되는 UI 구조를 만듭니다.</text>
</svg>
